<svg version="1.1" id="svg-logo" xmlns="http://www.w3.org/2000/svg" xmlns:xlink="http://www.w3.org/1999/xlink" x="0px" y="0px"
	 viewBox="0 0 187.7 167.9" style="enable-background:new 0 0 187.7 167.9;" xml:space="preserve">
<style type="text/css">
  .st0{stroke:#f2f2f2;stroke-width:2;stroke-miterlimit:5;}
  
  #svg-logo {
  stroke-dasharray: 900;
  stroke-dashoffset: 900;
  -webkit-animation: draw 4.5s forwards linear;
  -moz-animation: draw 4.5s forwards linear;
  -o-animation: draw 4.5s forwards linear;
  animation: draw 4.5s forwards linear;
  fill: #4f4f4f;
  transition: all ease;
} 
  

@keyframes draw {
  0% {
    stroke-dashoffset: 900;
  }
  80% {
    stroke-dashoffset:0;
  }
  80% {
    stroke-dashoffset:0;
    fill: #4f4f4f;
  }
  100% {
    stroke-dashoffset:0;
    fill: #f2f2f2;
  }
}
  

  


  
</style>
<path id="XMLID_4_" class="st0" d="M152,79.1l-0.2,0c16.7-6.1,26.9-20,26.9-35.4c0-12.5-5-21.9-13.2-28.1
	c-9.9-8-23.1-11.6-43.6-11.6c-9.8,0-19.8,0.1-27.8,0c-8.7-0.1-17.4,0-27.2,0c-20.5,0-33.7,3.5-43.6,11.6C14.9,21.8,10,31.2,10,43.7
	C10,59,20.1,72.9,36.8,79l0,0C21.7,82.8,4.1,95.3,4.1,118.9c0,13.7,5.4,24,13.4,31.8c11.1,10.1,29,14.9,54.9,14.9
	c8.6,0,15.4,0,21.6,0c5.8,0.1,13.6,0,22.1,0c25.9,0,43.9-4.7,54.9-14.9c8-7.8,13.4-18.2,13.4-31.8C184.6,95.3,165.2,84.3,152,79.1z
	 M122.1,149.5c-7.6,0.4-13.1,0.4-17.3,0.3l-38.2-0.3c-21.2,0-40.8-7.8-40.8-31c0-21.7,18.6-30.7,41-30.7h3.7V72.2h-5.3
	c-21.7,0-34.4-11.3-34.4-26.7c0-18.7,14.1-26,34.9-26c9.4,0,14.2,0.1,18,0l21,0c2.7,0.1,8.5-0.3,18.4,0c20.7,0.6,34.9,7.3,34.9,26
	c0,15.4-12.7,26.7-34.4,26.7l-11.6-0.4l0-37.9c-5.8,0-11.6,0-17.3,0c-0.1,33.8-0.1,67.6-0.2,101.5c5.8,0,11.5,0,17.3,0l0.3-47.9
	l10,0.3c22.4,0,41,9,41,30.7C162.9,141.7,143.3,148.5,122.1,149.5z"/>
</svg>